<svg xmlns="http://www.w3.org/2000/svg" xmlns:xlink="http://www.w3.org/1999/xlink" width="277" height="276.971" viewBox="0 0 277 276.971">
  <!-- <defs>
    <filter id="Icon_simple-cashapp" x="0" y="0" width="277" height="276.971" filterUnits="userSpaceOnUse">
      <feOffset input="SourceAlpha"/>
      <feGaussianBlur stdDeviation="34.5" result="blur"/>
      <feFlood flood-color="silver" flood-opacity="0.49"/>
      <feComposite operator="in" in2="blur"/>
      <feComposite in="SourceGraphic"/>
    </filter>
  </defs> -->
  <g transform="matrix(1, 0, 0, 1, 0, 0)" filter="url(#Icon_simple-cashapp)">
    <path id="Icon_simple-cashapp-2" data-name="Icon simple-cashapp" d="M68.8,10.121a14.875,14.875,0,0,0-8.9-8.9C56.087,0,52.617,0,45.558,0H24.383c-7,0-10.529,0-14.292,1.167a14.875,14.875,0,0,0-8.9,8.925C0,13.883,0,17.383,0,24.383v21.2c0,7.029,0,10.5,1.167,14.292a14.875,14.875,0,0,0,8.9,8.9c3.792,1.2,7.292,1.2,14.292,1.2H45.587c7.029,0,10.529,0,14.292-1.167A14.875,14.875,0,0,0,68.8,59.879C70,56.087,70,52.587,70,45.587V24.442c0-7.029,0-10.529-1.2-14.321Zm-18,13.5L48.1,26.337a1.458,1.458,0,0,1-1.954.029,14.583,14.583,0,0,0-9.392-3.442c-2.829,0-5.658.933-5.658,3.529,0,2.625,3.033,3.5,6.533,4.813,6.125,2.042,11.2,4.608,11.2,10.617,0,6.533-5.075,11.025-13.358,11.521l-.758,3.5a1.429,1.429,0,0,1-1.4,1.138H28.087l-.262-.029a1.458,1.458,0,0,1-1.108-1.721l.817-3.7a19.075,19.075,0,0,1-8.4-4.579v-.029a1.4,1.4,0,0,1,0-1.983l2.917-2.829a1.429,1.429,0,0,1,1.954,0,14.1,14.1,0,0,0,9.887,3.85c3.792,0,6.329-1.6,6.329-4.142s-2.567-3.208-7.408-5.017c-5.133-1.837-10-4.433-10-10.5,0-7.058,5.862-10.5,12.8-10.821l.729-3.588a1.4,1.4,0,0,1,1.4-1.108h5.192l.292.029A1.4,1.4,0,0,1,44.3,13.533l-.788,4a21.889,21.889,0,0,1,7.233,4.054l.058.058a1.39,1.39,0,0,1,0,1.983Z" transform="translate(103.5 103.5)" fill="#21ad77"/>
  </g>
</svg>
