<svg xmlns="http://www.w3.org/2000/svg" xmlns:xlink="http://www.w3.org/1999/xlink" width="277" height="276.577" viewBox="0 0 277 276.577">
  <!-- <defs>
    <filter id="Icon_awesome-facebook" x="0" y="0" width="277" height="276.577" filterUnits="userSpaceOnUse">
      <feOffset input="SourceAlpha"/>
      <feGaussianBlur stdDeviation="34.5" result="blur"/>
      <feFlood flood-color="silver" flood-opacity="0.49"/>
      <feComposite operator="in" in2="blur"/>
      <feComposite in="SourceGraphic"/>
    </filter>
  </defs> -->
  <g transform="matrix(1, 0, 0, 1, 0, 0)" filter="url(#Icon_awesome-facebook)">
    <path id="Icon_awesome-facebook-2" data-name="Icon awesome-facebook" d="M70.562,35.563A35,35,0,1,0,30.094,70.139V45.68H21.2V35.563h8.891V27.851c0-8.771,5.222-13.616,13.22-13.616a53.864,53.864,0,0,1,7.835.683v8.609H46.734c-4.347,0-5.7,2.7-5.7,5.466v6.57h9.707L49.186,45.68H41.031V70.139A35.013,35.013,0,0,0,70.562,35.563Z" transform="translate(102.94 102.94)" fill="#21ad77"/>
  </g>
</svg>
