<svg xmlns="http://www.w3.org/2000/svg" xmlns:xlink="http://www.w3.org/1999/xlink" width="277" height="276.984" viewBox="0 0 277 276.984">
  <!-- <defs>
    <filter id="Icon_awesome-instagram" x="0" y="0" width="277" height="276.984" filterUnits="userSpaceOnUse">
      <feOffset input="SourceAlpha"/>
      <feGaussianBlur stdDeviation="34.5" result="blur"/>
      <feFlood flood-color="silver" flood-opacity="0.49"/>
      <feComposite operator="in" in2="blur"/>
      <feComposite in="SourceGraphic"/>
    </filter>
  </defs> -->
  <g transform="matrix(1, 0, 0, 1, 0, 0)" filter="url(#Icon_awesome-instagram)">
    <path id="Icon_awesome-instagram-2" data-name="Icon awesome-instagram" d="M35,19.287A17.943,17.943,0,1,0,52.946,37.23,17.915,17.915,0,0,0,35,19.287ZM35,48.9A11.665,11.665,0,1,1,46.668,37.23,11.687,11.687,0,0,1,35,48.9ZM57.865,18.553a4.185,4.185,0,1,1-4.185-4.185A4.175,4.175,0,0,1,57.865,18.553ZM69.749,22.8C69.483,17.194,68.2,12.228,64.1,8.137,60,4.045,55.038,2.765,49.432,2.484c-5.778-.328-23.1-.328-28.875,0C14.967,2.749,10,4.03,5.894,8.121S.522,17.179.241,22.785c-.328,5.778-.328,23.1,0,28.875.265,5.606,1.546,10.572,5.653,14.664s9.057,5.372,14.664,5.653c5.778.328,23.1.328,28.875,0C55.038,71.711,60,70.43,64.1,66.323c4.091-4.091,5.372-9.057,5.653-14.664.328-5.778.328-23.081,0-28.859ZM62.284,57.859a11.81,11.81,0,0,1-6.653,6.653C51.025,66.339,40.093,65.917,35,65.917s-16.038.406-20.629-1.405a11.81,11.81,0,0,1-6.653-6.653C5.894,53.252,6.315,42.321,6.315,37.23S5.909,21.192,7.721,16.6a11.81,11.81,0,0,1,6.653-6.653C18.98,8.121,29.912,8.543,35,8.543S51.04,8.137,55.632,9.948A11.81,11.81,0,0,1,62.284,16.6c1.827,4.607,1.405,15.538,1.405,20.629S64.111,53.268,62.284,57.859Z" transform="translate(103.51 101.26)" fill="#21ad77"/>
  </g>
</svg>
