<svg xmlns="http://www.w3.org/2000/svg" xmlns:xlink="http://www.w3.org/1999/xlink" width="266.259" height="277" viewBox="0 0 266.259 277">
  <!-- <defs>
    <filter id="Icon_awesome-paypal" x="0" y="0" width="266.259" height="277" filterUnits="userSpaceOnUse">
      <feOffset input="SourceAlpha"/>
      <feGaussianBlur stdDeviation="34.5" result="blur"/>
      <feFlood flood-color="silver" flood-opacity="0.49"/>
      <feComposite operator="in" in2="blur"/>
      <feComposite in="SourceGraphic"/>
    </filter>
  </defs> -->
  <g transform="matrix(1, 0, 0, 1, 0, 0)" filter="url(#Icon_awesome-paypal)">
    <path id="Icon_awesome-paypal-2" data-name="Icon awesome-paypal" d="M17.188,43.211c-.54,2.964-2.686,16.778-3.319,20.684-.046.278-.154.386-.463.386H1.892A1.876,1.876,0,0,1,.024,62.135l9.045-57.4a3.135,3.135,0,0,1,3.087-2.609c23.508,0,25.484-.571,31.488,1.76,9.277,3.6,10.126,12.271,6.792,21.656C47.118,35.2,39.246,39.352,28.811,39.476c-6.7.108-10.728-1.08-11.623,3.735ZM55.113,21c-.278-.2-.386-.278-.463.2a36.126,36.126,0,0,1-1.358,5.186c-6.159,17.566-23.23,16.037-31.566,16.037a1.553,1.553,0,0,0-1.682,1.451c-3.488,21.671-4.183,26.194-4.183,26.194A1.644,1.644,0,0,0,17.5,72.06h9.8a2.769,2.769,0,0,0,2.686-2.3c.108-.834-.17.942,2.223-14.093.71-3.4,2.207-3.041,4.523-3.041,10.959,0,19.51-4.445,22.057-17.334,1-5.372.71-11.021-3.674-14.293Z" transform="translate(103.49 101.44)" fill="#21ad77"/>
  </g>
</svg>
