<svg xmlns="http://www.w3.org/2000/svg" xmlns:xlink="http://www.w3.org/1999/xlink" width="277" height="272.808" viewBox="0 0 277 272.808">
  <!-- <defs>
    <filter id="Icon_awesome-snapchat-ghost" x="0" y="0" width="277" height="272.808" filterUnits="userSpaceOnUse">
      <feOffset input="SourceAlpha"/>
      <feGaussianBlur stdDeviation="34.5" result="blur"/>
      <feFlood flood-color="silver" flood-opacity="0.49"/>
      <feComposite operator="in" in2="blur"/>
      <feComposite in="SourceGraphic"/>
    </filter>
  </defs> -->
  <g transform="matrix(1, 0, 0, 1, 0, 0)" filter="url(#Icon_awesome-snapchat-ghost)">
    <path id="Icon_awesome-snapchat-ghost-2" data-name="Icon awesome-snapchat-ghost" d="M69.842,52.667c-.712,1.662-3.724,2.883-9.209,3.735a25.644,25.644,0,0,0-.89,3.275,1.583,1.583,0,0,1-1.658,1.213h-.041c-1.284,0-2.625-.591-5.312-.591-3.626,0-4.876.826-7.691,2.815-2.985,2.111-5.848,3.933-10.121,3.746-4.327.319-7.933-2.312-9.963-3.747-2.832-2-4.078-2.814-7.689-2.814-2.579,0-4.2.645-5.312.645a1.623,1.623,0,0,1-1.7-1.236,25.325,25.325,0,0,0-.892-3.3C6.54,55.97.164,54.858,0,52.013A1.453,1.453,0,0,1,1.216,50.5c9.513-1.566,13.8-11.334,13.976-11.749.01-.024.021-.047.032-.07a3.108,3.108,0,0,0,.337-2.564c-.69-1.626-3.674-2.21-4.929-2.706-3.242-1.28-3.693-2.752-3.5-3.76.333-1.755,2.97-2.835,4.512-2.113a7.824,7.824,0,0,0,3.219.861,2.79,2.79,0,0,0,1.362-.3c-.279-4.913-.971-11.934.778-15.855A18.627,18.627,0,0,1,34.293,1.09c.129,0,1.25-.012,1.382-.012A18.5,18.5,0,0,1,53,12.24c1.747,3.917,1.059,10.909.779,15.861a2.679,2.679,0,0,0,1.176.292,8.167,8.167,0,0,0,3.017-.855,3.7,3.7,0,0,1,2.8.008h0a2.84,2.84,0,0,1,2.131,2.443c.025,1.333-1.165,2.483-3.538,3.42-.29.114-.642.226-1.016.345-1.339.425-3.363,1.067-3.912,2.361a3.105,3.105,0,0,0,.336,2.563c.012.023.023.047.033.07.178.414,4.459,10.18,13.977,11.749A1.492,1.492,0,0,1,69.842,52.667Z" transform="translate(103.5 102.42)" fill="#21ad77"/>
  </g>
</svg>
