<svg xmlns="http://www.w3.org/2000/svg" xmlns:xlink="http://www.w3.org/1999/xlink" width="289.728" height="276.662" viewBox="0 0 289.728 276.662">
  <!-- <defs>
    <filter id="Path_5" x="23.435" y="0" width="242.824" height="261.557" filterUnits="userSpaceOnUse">
      <feOffset input="SourceAlpha"/>
      <feGaussianBlur stdDeviation="34.5" result="blur"/>
      <feFlood flood-color="silver" flood-opacity="0.49"/>
      <feComposite operator="in" in2="blur"/>
      <feComposite in="SourceGraphic"/>
    </filter>
    <filter id="Path_6" x="0" y="22.378" width="249.743" height="253.968" filterUnits="userSpaceOnUse">
      <feOffset input="SourceAlpha"/>
      <feGaussianBlur stdDeviation="34.5" result="blur-2"/>
      <feFlood flood-color="silver" flood-opacity="0.49"/>
      <feComposite operator="in" in2="blur-2"/>
      <feComposite in="SourceGraphic"/>
    </filter>
    <filter id="Path_7" x="45.515" y="22.384" width="244.213" height="254.278" filterUnits="userSpaceOnUse">
      <feOffset input="SourceAlpha"/>
      <feGaussianBlur stdDeviation="34.5" result="blur-3"/>
      <feFlood flood-color="silver" flood-opacity="0.49"/>
      <feComposite operator="in" in2="blur-3"/>
      <feComposite in="SourceGraphic"/>
    </filter>
  </defs> -->
  <g id="throne" transform="translate(78.558 7.924)">
    <g id="Group_1" data-name="Group 1" transform="translate(24.942 95.576)">
      <g transform="matrix(1, 0, 0, 1, -103.5, -103.5)" filter="url(#Path_5)">
        <path id="Path_5-2" data-name="Path 5" d="M319.9,130.324a5.956,5.956,0,0,1,.608-2.8q5-9.8,10-19.6,2.883-5.656,5.765-11.32a1.627,1.627,0,0,1,1.622-1.03,1.538,1.538,0,0,1,1.387.916q1.715,3.381,3.438,6.755,6.057,11.871,12.131,23.734a6.3,6.3,0,0,1,.657,4.768,5.735,5.735,0,0,1-1.46,2.425q-4.561,4.671-9.13,9.325-3,3.077-6.009,6.171a1.53,1.53,0,0,1-2.149.041c-2.084-2.116-4.152-4.249-6.228-6.373l-5.1-5.222c-1.338-1.37-2.692-2.733-4.022-4.119A5.394,5.394,0,0,1,319.9,130.324Z" transform="translate(-192.97 7.92)" fill="#21ad77"/>
      </g>
      <g transform="matrix(1, 0, 0, 1, -103.5, -103.5)" filter="url(#Path_6)">
        <path id="Path_6-2" data-name="Path 6" d="M43.653,428.548a7.258,7.258,0,0,1-7.225-5.611l-9.122-31.43c-.762-2.627-1.533-5.246-2.287-7.874a1.522,1.522,0,0,1,1.743-2.027,1.562,1.562,0,0,1,.77.373c1.8,1.792,3.576,3.608,5.36,5.425q2.4,2.433,4.776,4.865,5.765,5.85,11.523,11.7,4.269,4.342,8.539,8.676,4.744,4.829,9.487,9.649a1.354,1.354,0,0,1,.349,1.573,1.445,1.445,0,0,1-1.338.916c-1.824.113-3.657.195-5.482.357a63.072,63.072,0,0,0-13.307,2.619,12.282,12.282,0,0,1-3.227.787Z" transform="translate(78.56 -255.7)" fill="#21ad77"/>
      </g>
      <g transform="matrix(1, 0, 0, 1, -103.5, -103.5)" filter="url(#Path_7)">
        <path id="Path_7-2" data-name="Path 7" d="M616.945,428.935a15.039,15.039,0,0,1-1.816-.381,70.06,70.06,0,0,0-8-2.222,5.1,5.1,0,0,1-2.595-1.419q-2.907-2.956-5.8-5.919a1.515,1.515,0,0,1,.008-2.376l5.084-5.182q4.731-4.8,9.455-9.617l7.833-7.979q5.68-5.777,11.344-11.563a1.944,1.944,0,0,1,1.289-.616,1.5,1.5,0,0,1,1.6,1.768c-.2.957-.5,1.881-.77,2.822l-9.22,31.7c-.543,1.865-1.03,3.738-1.638,5.587a7.478,7.478,0,0,1-5.79,5.238,7.9,7.9,0,0,1-.981.114A.052.052,0,0,1,616.945,428.935Z" transform="translate(-449.15 -255.77)" fill="#21ad77"/>
      </g>
    </g>
  </g>
</svg>
