<svg xmlns="http://www.w3.org/2000/svg" xmlns:xlink="http://www.w3.org/1999/xlink" width="267.814" height="277" viewBox="0 0 267.814 277">
  <!-- <defs>
    <filter id="Icon_simple-tiktok" x="0" y="0" width="267.814" height="277" filterUnits="userSpaceOnUse">
      <feOffset input="SourceAlpha"/>
      <feGaussianBlur stdDeviation="34.5" result="blur"/>
      <feFlood flood-color="silver" flood-opacity="0.49"/>
      <feComposite operator="in" in2="blur"/>
      <feComposite in="SourceGraphic"/>
    </filter>
  </defs> -->
  <g transform="matrix(1, 0, 0, 1, 0, 0)" filter="url(#Icon_simple-tiktok)">
    <path id="Icon_simple-tiktok-2" data-name="Icon simple-tiktok" d="M34.308.058C38.129,0,41.921.029,45.712,0a18.167,18.167,0,0,0,5.1,12.162c3.267,3.237,7.875,4.725,12.367,5.221V29.137a31.219,31.219,0,0,1-12.25-2.829A36.035,36.035,0,0,1,46.208,23.6c-.029,8.517.029,17.033-.058,25.521a22.277,22.277,0,0,1-3.937,11.492A21.73,21.73,0,0,1,24.975,69.97a21.267,21.267,0,0,1-11.9-3A21.994,21.994,0,0,1,2.43,50.312c-.058-1.458-.087-2.917-.029-4.346A21.957,21.957,0,0,1,27.863,26.483c.058,4.317-.117,8.633-.117,12.95a10.007,10.007,0,0,0-12.775,6.183,11.57,11.57,0,0,0-.408,4.7c.7,4.783,5.308,8.808,10.208,8.371a9.8,9.8,0,0,0,8.079-4.7,6.73,6.73,0,0,0,1.2-3.092c.292-5.221.175-10.412.2-15.633.029-11.754-.029-23.479.058-35.2Z" transform="translate(101.13 103.5)" fill="#21ad77"/>
  </g>
</svg>
