<svg xmlns="http://www.w3.org/2000/svg" xmlns:xlink="http://www.w3.org/1999/xlink" width="277" height="276.189" viewBox="0 0 277 276.189">
  <!-- <defs>
    <filter id="Trovo_logo" x="0" y="0" width="277" height="276.189" filterUnits="userSpaceOnUse">
      <feOffset input="SourceAlpha"/>
      <feGaussianBlur stdDeviation="34.5" result="blur"/>
      <feFlood flood-color="silver" flood-opacity="0.49"/>
      <feComposite operator="in" in2="blur"/>
      <feComposite in="SourceGraphic"/>
    </filter>
  </defs> -->
  <!-- <g transform="matrix(1, 0, 0, 1, 0, 0)" filter="url(#Trovo_logo)"> -->
    <path id="Trovo_logo-2" data-name="Trovo_logo" d="M47.886,0a1.488,1.488,0,0,1,1.575,1.575V1.89L47.256,11.971c0,.315.315.945.63.945H68.363a1.468,1.468,0,0,1,1.575,1.89L65.213,34.654a1.727,1.727,0,0,1-1.89,1.26L52.3,35.284a13.078,13.078,0,0,0-10.081,4.1c-3.78,3.78-4.1,9.451-2.52,13.547a8.971,8.971,0,0,0,10.4,5.356,6.432,6.432,0,0,0,5.041-6.931c-.315-3.15-1.575-4.1-3.465-4.1s-2.52.945-2.52,1.89a2.86,2.86,0,0,0,.945,2.205c.945.945-.945,3.78-3.465,2.205-1.575-.945-2.52-2.835-2.205-5.671.315-3.465,3.15-6.616,8.191-6.616a9.567,9.567,0,0,1,9.766,7.876c1.575,5.986-1.575,13.232-8.821,17.012-8.821,4.726-23.628,4.411-31.819-4.411a23.721,23.721,0,0,1-5.986-17.642,19.782,19.782,0,0,1,.945-5.986,1.732,1.732,0,0,0-.945-1.575H1.575A1.764,1.764,0,0,1,0,34.654v-.315L4.411,15.122a2.4,2.4,0,0,1,2.52-1.89H20.477a2.588,2.588,0,0,0,1.575-1.575L24.258,1.89A2.64,2.64,0,0,1,26.778,0Z" transform="translate(103.5 103.5)" fill="#21ad77"/>
  <!-- </g> -->
</svg>
