<?xml version="1.0" standalone="no"?>
<!DOCTYPE svg PUBLIC "-//W3C//DTD SVG 20010904//EN"
 "http://www.w3.org/TR/2001/REC-SVG-20010904/DTD/svg10.dtd">
<svg version="1.0" xmlns="http://www.w3.org/2000/svg"
 width="800.000000pt" height="800.000000pt" viewBox="0 0 800.000000 800.000000"
 preserveAspectRatio="xMidYMid meet">
<metadata>
Created by potrace 1.14, written by Peter Selinger 2001-2017
</metadata>
<g transform="translate(0.000000,800.000000) scale(0.100000,-0.100000)"
fill="#000000" stroke="none">
<path d="M2310 6503 c-78 -32 -85 -37 -150 -113 -23 -26 -67 -118 -75 -155 -5
-21 -36 -109 -43 -119 -3 -6 -7 -15 -8 -21 -2 -10 -85 -245 -97 -275 -4 -8
-25 -69 -47 -135 -23 -66 -45 -129 -50 -140 -5 -11 -34 -92 -65 -180 -71 -204
-77 -218 -86 -229 -5 -6 -48 29 -101 81 -185 180 -223 213 -287 246 -61 32
-92 43 -146 54 -40 8 -581 9 -625 1 -41 -8 -76 -20 -138 -51 -31 -15 -115 -93
-144 -134 -13 -18 -43 -61 -67 -95 -25 -35 -51 -69 -58 -76 -7 -7 -13 -16 -13
-20 0 -4 -11 -20 -25 -36 -49 -56 -79 -135 -82 -208 -2 -68 20 -170 38 -176 5
-2 9 -9 9 -16 0 -10 37 -66 117 -175 30 -40 43 -51 97 -77 61 -29 143 -37 204
-18 42 12 123 60 130 77 2 4 10 7 17 7 7 0 15 4 17 8 3 9 172 132 180 132 3 0
18 -19 34 -42 16 -24 31 -45 34 -48 3 -3 37 -48 75 -100 38 -52 71 -97 74
-100 4 -3 15 -18 26 -35 43 -69 221 -302 249 -328 36 -32 86 -60 146 -81 53
-18 186 -14 300 9 14 2 39 7 55 9 17 3 89 15 160 26 72 12 142 23 158 26 59 9
83 13 112 18 17 3 48 8 70 11 73 11 220 35 240 39 11 2 40 7 65 10 25 3 54 8
65 10 170 31 158 32 216 -22 29 -26 62 -57 73 -70 l21 -24 1 -1126 c1 -1147 2
-1181 36 -1227 41 -55 79 -91 122 -113 l51 -27 410 -2 c437 -3 455 -1 560 48
28 12 52 25 55 29 3 3 16 13 30 22 23 14 88 71 181 158 21 19 63 58 94 85 32
28 74 66 94 85 42 40 193 176 225 203 12 10 57 51 101 92 44 40 92 84 106 97
42 38 187 169 289 262 52 47 98 86 101 86 6 0 110 -171 179 -295 12 -22 31
-52 41 -67 11 -14 19 -29 19 -32 0 -3 24 -45 53 -93 30 -49 65 -109 79 -133
14 -25 60 -103 102 -173 42 -71 76 -131 76 -133 0 -11 66 -101 95 -130 27 -26
100 -77 115 -80 3 0 19 -7 35 -15 24 -11 125 -14 540 -16 517 -3 568 0 603 34
7 7 17 13 21 13 3 0 23 16 43 35 35 34 63 83 75 128 3 12 7 274 8 582 2 308 4
563 4 567 1 3 95 100 209 215 114 114 218 226 232 248 33 55 35 181 3 237 -37
63 -54 77 -248 206 -104 70 -192 128 -195 130 -2 1 -5 148 -5 325 -2 281 -4
328 -20 372 -27 76 -73 137 -140 182 -28 19 -46 27 -165 68 -25 9 -54 19 -65
24 -11 5 -36 14 -55 21 -19 7 -45 16 -57 21 -13 5 -33 13 -45 18 -13 5 -39 14
-58 21 -19 7 -44 16 -55 20 -62 25 -171 63 -182 63 -7 0 -13 4 -13 9 0 4 -3 7
-7 6 -8 -1 -26 5 -68 22 -11 5 -72 27 -135 50 -147 53 -220 80 -245 90 -11 5
-76 29 -145 54 -187 67 -723 266 -727 269 -3 3 -17 72 -29 137 -2 14 -9 45
-14 70 -5 25 -12 56 -14 70 -3 14 -12 63 -21 110 -10 47 -18 94 -20 105 -2 11
-6 34 -10 50 -3 17 -10 53 -16 81 -5 28 -12 64 -15 80 -27 157 -82 240 -194
293 l-55 26 -1290 2 -1290 3 -65 -27z"/>
</g>
</svg>
